<svg preserveAspectRatio="none" width="100%" height="100%" overflow="visible" style="display: block;" viewBox="0 0 183.962 201.95" fill="none" xmlns="http://www.w3.org/2000/svg">
<defs>
<linearGradient id="tag_grad" x1="92" y1="51" x2="92" y2="141" gradientUnits="userSpaceOnUse">
<stop stop-color="#FBEF9B"/>
<stop offset="0.250959" stop-color="#FFBD42"/>
<stop offset="0.504311" stop-color="#FE8709"/>
<stop offset="0.747322" stop-color="#F48B76"/>
<stop offset="1" stop-color="#E18EDE"/>
</linearGradient>
<filter id="tag_shadow" x="0" y="0" width="183.962" height="201.95" filterUnits="userSpaceOnUse" color-interpolation-filters="sRGB">
<feFlood flood-opacity="0" result="bg"/>
<feColorMatrix in="SourceAlpha" type="matrix" values="0 0 0 0 0 0 0 0 0 0 0 0 0 0 0 0 0 0 127 0" result="hardAlpha"/>
<feOffset dy="6.54088"/>
<feGaussianBlur stdDeviation="17.9874"/>
<feComposite in2="hardAlpha" operator="out"/>
<feColorMatrix type="matrix" values="0 0 0 0 0 0 0 0 0 0 0 0 0 0 0 0 0 0 0.08 0"/>
<feBlend mode="normal" in2="bg" result="shadow"/>
<feBlend mode="normal" in="SourceGraphic" in2="shadow" result="shape"/>
</filter>
<filter id="tag_gloss" x="-50%" y="-50%" width="200%" height="200%"><feGaussianBlur stdDeviation="6.5"/></filter>
<clipPath id="tag_clip"><path d="M103.3 62.3 L125.7 84.7 Q137 96 125.7 107.3 L103.3 129.7 Q92 141 80.7 129.7 L58.3 107.3 Q47 96 58.3 84.7 L80.7 62.3 Q92 51 103.3 62.3 Z"/></clipPath>
</defs>
<path filter="url(#tag_shadow)" d="M104.7 52.7 L135.3 83.3 Q148 96 135.3 108.7 L104.7 139.3 Q92 152 79.3 139.3 L48.7 108.7 Q36 96 48.7 83.3 L79.3 52.7 Q92 40 104.7 52.7 Z" fill="white"/>
<path d="M103.3 62.3 L125.7 84.7 Q137 96 125.7 107.3 L103.3 129.7 Q92 141 80.7 129.7 L58.3 107.3 Q47 96 58.3 84.7 L80.7 62.3 Q92 51 103.3 62.3 Z" fill="url(#tag_grad)"/>
<g clip-path="url(#tag_clip)"><ellipse cx="78" cy="82" rx="21" ry="13" fill="white" fill-opacity="0.4" filter="url(#tag_gloss)"/></g>
<circle cx="92" cy="72" r="8.5" fill="white"/>
</svg>
